<svg width="24" height="24" viewBox="0 0 24 24" fill="none" xmlns="http://www.w3.org/2000/svg">
<path d="M22 11.2313V16.5429C22.0015 17.1244 21.888 17.7004 21.6662 18.2379C21.4444 18.7753 21.1185 19.2637 20.7074 19.6748C20.2962 20.086 19.8079 20.4118 19.2704 20.6336C18.733 20.8555 18.157 20.9689 17.5755 20.9674H6.43571C5.85373 20.9689 5.27718 20.8555 4.73908 20.6339C4.20098 20.4122 3.71191 20.0865 3.29987 19.6755C2.88783 19.2645 2.56092 18.7763 2.33786 18.2387C2.11481 17.7012 2 17.1249 2 16.5429V7.43571C2.01477 6.25415 2.49453 5.126 3.33532 4.29572C4.17611 3.46544 5.31021 2.99991 6.49186 3H13.5216" stroke="#8C8C8C" stroke-width="1.7" stroke-linecap="round" stroke-linejoin="round"/>
<path d="M15.8232 6.11084H21.9995" stroke="#8C8C8C" stroke-width="1.7" stroke-linecap="round" stroke-linejoin="round"/>
<path d="M18.9346 9.19876V3.02246" stroke="#8C8C8C" stroke-width="1.7" stroke-linecap="round" stroke-linejoin="round"/>
<path d="M9.27675 10.6701C9.65971 10.6723 10.0347 10.5606 10.354 10.3493C10.6734 10.1379 10.9227 9.83634 11.0703 9.48295C11.2178 9.12956 11.257 8.74027 11.1829 8.36456C11.1087 7.98884 10.9245 7.64365 10.6537 7.37285C10.3829 7.10205 10.0377 6.91787 9.66201 6.8437C9.2863 6.76953 8.89701 6.80873 8.54362 6.95631C8.19023 7.10389 7.88869 7.35319 7.67731 7.67254C7.46593 7.99189 7.35426 8.36686 7.35648 8.74982C7.35942 9.2582 7.56268 9.74492 7.92217 10.1044C8.28165 10.4639 8.76837 10.6671 9.27675 10.6701Z" stroke="#8C8C8C" stroke-width="1.7" stroke-linecap="round" stroke-linejoin="round"/>
<path d="M3.21289 19.2826L7.92934 16.0934C8.31768 15.8544 8.76957 15.7393 9.22491 15.7634C9.68025 15.7874 10.1175 15.9495 10.4785 16.2281L10.7929 16.5089C11.1753 16.8247 11.6557 16.9975 12.1517 16.9975C12.6476 16.9975 13.1281 16.8247 13.5105 16.5089L17.5082 13.0501C17.8933 12.7402 18.3727 12.5713 18.867 12.5713C19.3613 12.5713 19.8407 12.7402 20.2258 13.0501L21.7979 14.3977" stroke="#8C8C8C" stroke-width="1.7" stroke-linecap="round" stroke-linejoin="round"/>
</svg>
