<svg width="33" height="32" viewBox="0 0 33 32" fill="none" xmlns="http://www.w3.org/2000/svg">
<path d="M13.8511 22.6002H8.79781C4.30448 22.6002 3.18448 21.4802 3.18448 16.9869V8.98687C3.18448 4.49354 4.30448 3.37354 8.79781 3.37354H22.8378C27.3311 3.37354 28.4511 4.49354 28.4511 8.98687" stroke="#8C8C8C" stroke-width="1.8" stroke-linecap="round" stroke-linejoin="round"/>
<path d="M13.8512 28.6268V22.6001" stroke="#8C8C8C" stroke-width="1.8" stroke-linecap="round" stroke-linejoin="round"/>
<path d="M3.18448 17.2666H13.8511" stroke="#8C8C8C" stroke-width="1.8" stroke-linecap="round" stroke-linejoin="round"/>
<path d="M9.50449 28.6265H13.8512" stroke="#8C8C8C" stroke-width="1.8" stroke-linecap="round" stroke-linejoin="round"/>
<path d="M29.8512 17.0668V24.6801C29.8512 27.8401 29.0645 28.6268 25.9045 28.6268H21.1712C18.0112 28.6268 17.2245 27.8401 17.2245 24.6801V17.0668C17.2245 13.9068 18.0112 13.1201 21.1712 13.1201H25.9045C29.0645 13.1201 29.8512 13.9068 29.8512 17.0668Z" stroke="#8C8C8C" stroke-width="1.8" stroke-linecap="round" stroke-linejoin="round"/>
<path d="M23.5105 24.3332H23.5225" stroke="#8C8C8C" stroke-width="1.8" stroke-linecap="round" stroke-linejoin="round"/>
</svg>
