<svg width="16" height="16" viewBox="0 0 16 16" fill="none" xmlns="http://www.w3.org/2000/svg">
<path d="M13.3333 4.69301V11.3063C13.3333 12.3197 13.24 13.0397 13 13.553C13 13.5597 12.9933 13.573 12.9867 13.5797C12.84 13.7663 12.6467 13.8597 12.42 13.8597C12.0667 13.8597 11.64 13.6263 11.18 13.133C10.6333 12.5463 9.79331 12.593 9.31331 13.233L8.64001 14.1263C8.37335 14.4863 8.02 14.6663 7.66667 14.6663C7.31333 14.6663 6.95999 14.4863 6.69332 14.1263L6.01335 13.2263C5.54001 12.593 4.70666 12.5463 4.15999 13.1263L4.15332 13.133C3.39999 13.9397 2.73335 14.0597 2.34668 13.5797C2.34001 13.573 2.33333 13.5597 2.33333 13.553C2.09333 13.0397 2 12.3197 2 11.3063V4.69301C2 3.67967 2.09333 2.95967 2.33333 2.44634C2.33333 2.43967 2.33335 2.43301 2.34668 2.42634C2.72668 1.93967 3.39999 2.05967 4.15332 2.86634L4.15999 2.87301C4.70666 3.45301 5.54001 3.40634 6.01335 2.77301L6.69332 1.87301C6.95999 1.51301 7.31333 1.33301 7.66667 1.33301C8.02 1.33301 8.37335 1.51301 8.64001 1.87301L9.31331 2.76634C9.79331 3.40634 10.6333 3.45301 11.18 2.86634C11.64 2.37301 12.0667 2.13967 12.42 2.13967C12.6467 2.13967 12.84 2.23967 12.9867 2.42634C13 2.43301 13 2.43967 13 2.44634C13.24 2.95967 13.3333 3.67967 13.3333 4.69301Z" stroke="#8C8C8C" stroke-linecap="round" stroke-linejoin="round"/>
<path d="M5.3335 6.83301H10.6668" stroke="#8C8C8C" stroke-linecap="round" stroke-linejoin="round"/>
<path d="M5.3335 9.16699H9.3335" stroke="#8C8C8C" stroke-linecap="round" stroke-linejoin="round"/>
</svg>
