<svg width="18" height="22" viewBox="0 0 18 22" fill="none" xmlns="http://www.w3.org/2000/svg">
<path d="M12.1282 7.89744H5.35897C5.26195 7.89744 5.17282 7.92116 5.07692 7.92567V5.35897C5.07692 3.33723 6.72185 1.69231 8.74359 1.69231C10.4461 1.69231 12.0334 2.87468 12.4362 4.44176C12.5535 4.89417 13.0127 5.16604 13.4674 5.05096C13.9198 4.93363 14.1928 4.47332 14.0766 4.01978C13.4775 1.69117 11.2347 0 8.74359 0C5.78882 0 3.38462 2.40421 3.38462 5.35897V8.28553C1.40574 9.07415 0 11 0 13.2564V16.641C0 19.5958 2.40421 22 5.35897 22H12.1282C15.083 22 17.4872 19.5958 17.4872 16.641V13.2564C17.4872 10.3016 15.083 7.89744 12.1282 7.89744ZM15.7949 16.641C15.7949 18.6628 14.1499 20.3077 12.1282 20.3077H5.35897C3.33723 20.3077 1.69231 18.6628 1.69231 16.641V13.2564C1.69231 11.2347 3.33723 9.58974 5.35897 9.58974H12.1282C14.1499 9.58974 15.7949 11.2347 15.7949 13.2564V16.641ZM9.58974 14.3846V15.5128C9.58974 15.9799 9.21067 16.359 8.74359 16.359C8.27651 16.359 7.89744 15.9799 7.89744 15.5128V14.3846C7.89744 13.9175 8.27651 13.5385 8.74359 13.5385C9.21067 13.5385 9.58974 13.9175 9.58974 14.3846Z" fill="#E51D63"/>
</svg>
