<svg width="16" height="16" viewBox="0 0 16 16" fill="none" xmlns="http://www.w3.org/2000/svg">
<path d="M14.0533 5.7197V10.2797C14.0533 11.0263 13.6533 11.7197 13.0066 12.0997L9.04661 14.3864C8.39994 14.7597 7.59994 14.7597 6.94661 14.3864L2.98661 12.0997C2.33994 11.7264 1.93994 11.033 1.93994 10.2797V5.7197C1.93994 4.97303 2.33994 4.27967 2.98661 3.89967L6.94661 1.61301C7.59328 1.23967 8.39327 1.23967 9.04661 1.61301L13.0066 3.89967C13.6533 4.27967 14.0533 4.96636 14.0533 5.7197Z" stroke="#8C8C8C" stroke-linecap="round" stroke-linejoin="round"/>
<path d="M8.00011 7.33321C8.85799 7.33321 9.55344 6.63775 9.55344 5.77987C9.55344 4.92198 8.85799 4.22656 8.00011 4.22656C7.14223 4.22656 6.44678 4.92198 6.44678 5.77987C6.44678 6.63775 7.14223 7.33321 8.00011 7.33321Z" stroke="#8C8C8C" stroke-linecap="round" stroke-linejoin="round"/>
<path d="M10.6668 11.1069C10.6668 9.90689 9.4735 8.93359 8.00016 8.93359C6.52683 8.93359 5.3335 9.90689 5.3335 11.1069" stroke="#8C8C8C" stroke-linecap="round" stroke-linejoin="round"/>
</svg>
