<svg width="16" height="16" viewBox="0 0 16 16" fill="none" xmlns="http://www.w3.org/2000/svg">
<path d="M8.00033 8.00016C9.84127 8.00016 11.3337 6.50778 11.3337 4.66683C11.3337 2.82588 9.84127 1.3335 8.00033 1.3335C6.15938 1.3335 4.66699 2.82588 4.66699 4.66683C4.66699 6.50778 6.15938 8.00016 8.00033 8.00016Z" stroke="white" stroke-linecap="round" stroke-linejoin="round"/>
<path d="M2.27344 14.6667C2.27344 12.0867 4.8401 10 8.0001 10C8.6401 10 9.26011 10.0867 9.84011 10.2467" stroke="white" stroke-linecap="round" stroke-linejoin="round"/>
<path d="M14.6663 12.0002C14.6663 12.2135 14.6397 12.4202 14.5863 12.6202C14.5263 12.8868 14.4197 13.1468 14.2797 13.3735C13.8197 14.1468 12.973 14.6668 11.9997 14.6668C11.313 14.6668 10.693 14.4068 10.2263 13.9801C10.0263 13.8068 9.853 13.6002 9.71967 13.3735C9.473 12.9735 9.33301 12.5002 9.33301 12.0002C9.33301 11.2802 9.61968 10.6202 10.0863 10.1402C10.573 9.64018 11.253 9.3335 11.9997 9.3335C12.7863 9.3335 13.4997 9.67351 13.9797 10.2202C14.4063 10.6935 14.6663 11.3202 14.6663 12.0002Z" stroke="white" stroke-miterlimit="10" stroke-linecap="round" stroke-linejoin="round"/>
<path d="M12.9935 11.9863H11.0068" stroke="white" stroke-miterlimit="10" stroke-linecap="round" stroke-linejoin="round"/>
<path d="M12 11.0132V13.0065" stroke="white" stroke-miterlimit="10" stroke-linecap="round" stroke-linejoin="round"/>
</svg>
