<svg xmlns="http://www.w3.org/2000/svg" version="1.1" xmlns:xlink="http://www.w3.org/1999/xlink" xmlns:svgjs="http://svgjs.com/svgjs" width="32" height="32"><svg width="32" height="32" viewBox="0 0 32 32" fill="none" xmlns="http://www.w3.org/2000/svg">
<path d="M15.9918 32C7.1744 32 0 24.8219 0 16C0 7.17807 7.1744 0 15.9918 0C20.2633 0 24.2784 1.66498 27.2998 4.6863C27.9394 5.3263 28.2982 6.19371 28.2982 7.09848C28.2982 8.00325 27.9394 8.87066 27.2998 9.51066L18.4028 18.4122C17.0715 19.7442 14.9122 19.7442 13.5809 18.4122C12.2496 17.0802 12.2496 14.9198 13.5809 13.5878L19.6058 7.55979C18.4791 7.07573 17.2549 6.82233 15.9918 6.82233C10.9345 6.82233 6.81885 10.9401 6.81885 16C6.81885 21.0599 10.9345 25.1777 15.9918 25.1777C21.0491 25.1777 25.1648 21.0599 25.1648 16C25.1648 14.1157 26.6909 12.5888 28.5742 12.5888C30.4575 12.5888 31.9837 14.1157 31.9837 16C31.9837 24.8236 24.8092 32 15.9918 32Z" fill="#BE185A"></path>
</svg><style>@media (prefers-color-scheme: light) { :root { filter: none; } }
</style></svg>