<svg width="32" height="32" viewBox="0 0 32 32" fill="none" xmlns="http://www.w3.org/2000/svg">
<path d="M17.2266 3.01313L25.9066 7.69313C26.92 8.23979 26.92 9.79979 25.9066 10.3465L17.2266 15.0265C16.4533 15.4398 15.5466 15.4398 14.7733 15.0265L6.09331 10.3465C5.07998 9.79979 5.07998 8.23979 6.09331 7.69313L14.7733 3.01313C15.5466 2.59979 16.4533 2.59979 17.2266 3.01313Z" stroke="#8C8C8C" stroke-width="1.5" stroke-linecap="round" stroke-linejoin="round"/>
<path d="M4.81335 13.5066L12.88 17.5466C13.88 18.0532 14.52 19.0799 14.52 20.1999V27.8266C14.52 28.9332 13.36 29.6399 12.3734 29.1466L4.30669 25.1066C3.30669 24.5999 2.66669 23.5732 2.66669 22.4532V14.8266C2.66669 13.7199 3.82669 13.0132 4.81335 13.5066Z" stroke="#8C8C8C" stroke-width="1.5" stroke-linecap="round" stroke-linejoin="round"/>
<path d="M27.1866 13.5066L19.12 17.5466C18.12 18.0532 17.48 19.0799 17.48 20.1999V27.8266C17.48 28.9332 18.64 29.6399 19.6266 29.1466L27.6933 25.1066C28.6933 24.5999 29.3333 23.5732 29.3333 22.4532V14.8266C29.3333 13.7199 28.1733 13.0132 27.1866 13.5066Z" stroke="#8C8C8C" stroke-width="1.5" stroke-linecap="round" stroke-linejoin="round"/>
</svg>
