<svg width="24" height="24" viewBox="0 0 24 24" fill="none" xmlns="http://www.w3.org/2000/svg">
<path d="M21.9999 11.1858V16.4826C21.9999 17.6469 21.5397 18.7641 20.7195 19.5906C19.8994 20.417 18.7857 20.8858 17.6214 20.8946H6.42327C5.84293 20.8961 5.26799 20.7831 4.7314 20.562C4.19481 20.3409 3.70711 20.0162 3.29622 19.6063C2.88534 19.1965 2.55934 18.7096 2.33692 18.1736C2.11449 17.6376 2 17.0629 2 16.4826V7.40087C2.0203 6.23616 2.49353 5.12518 3.31931 4.30357C4.1451 3.48197 5.25847 3.01438 6.42327 3H13.4781" stroke="#8C8C8C" stroke-width="1.7" stroke-linecap="round" stroke-linejoin="round"/>
<path d="M15.8408 6.07959H21.9998" stroke="#8C8C8C" stroke-width="1.7" stroke-linecap="round" stroke-linejoin="round"/>
<path d="M18.9209 9.15898V3" stroke="#8C8C8C" stroke-width="1.7" stroke-linecap="round" stroke-linejoin="round"/>
<path d="M11.8434 9.46105L7.25212 13.4924C7.05844 13.6858 6.91603 13.9244 6.83779 14.1867L6.49064 15.8216C6.45376 15.9474 6.44902 16.0805 6.47687 16.2086C6.50472 16.3367 6.56426 16.4558 6.65005 16.555C6.73584 16.6542 6.84514 16.7302 6.96793 16.7762C7.09072 16.8222 7.22308 16.8366 7.3529 16.8182L9.01023 16.6951C9.29527 16.6617 9.56409 16.5448 9.7829 16.3591L14.3741 12.3166C14.5896 12.1715 14.7684 11.9784 14.8966 11.7525C15.0248 11.5266 15.0989 11.274 15.113 11.0146C15.1271 10.7553 15.0809 10.4962 14.9779 10.2577C14.875 10.0192 14.7181 9.80784 14.5197 9.64022C14.3838 9.41457 14.1955 9.22509 13.9706 9.0879C13.7458 8.95071 13.4911 8.86988 13.2283 8.85228C12.9655 8.83469 12.7023 8.88085 12.4612 8.98685C12.22 9.09284 12.0081 9.25553 11.8434 9.46105Z" stroke="#8C8C8C" stroke-width="1.7" stroke-linecap="round" stroke-linejoin="round"/>
<path d="M10.9033 10.6035C11.0201 11.1999 11.287 11.7566 11.6789 12.221C12.0708 12.6854 12.5747 13.0421 13.143 13.2575" stroke="#8C8C8C" stroke-width="1.7" stroke-linecap="round" stroke-linejoin="round"/>
</svg>
