<svg width="32" height="32" viewBox="0 0 32 32" fill="none" xmlns="http://www.w3.org/2000/svg">
<path d="M11.96 29.3332H19.96C26.6267 29.3332 29.2933 26.6665 29.2933 19.9998V11.9998C29.2933 5.33317 26.6267 2.6665 19.96 2.6665H11.96C5.29333 2.6665 2.62667 5.33317 2.62667 11.9998V19.9998C2.62667 26.6665 5.29333 29.3332 11.96 29.3332Z" stroke="#8C8C8C" stroke-width="1.8" stroke-linecap="round" stroke-linejoin="round"/>
<path d="M2.62667 16.9332L10.6267 16.9065C11.6267 16.9065 12.7467 17.6665 13.12 18.5998L14.64 22.4398C14.9867 23.3065 15.5333 23.3065 15.88 22.4398L18.9333 14.6932C19.2267 13.9465 19.7733 13.9198 20.1467 14.6265L21.5333 17.2532C21.9467 18.0398 23.0133 18.6798 23.8933 18.6798H29.3067" stroke="#8C8C8C" stroke-width="1.8" stroke-linecap="round" stroke-linejoin="round"/>
</svg>
