<svg width="16" height="16" viewBox="0 0 16 16" fill="none" xmlns="http://www.w3.org/2000/svg">
<path d="M6.00016 14.6663H10.0002C13.3335 14.6663 14.6668 13.333 14.6668 9.99967V5.99967C14.6668 2.66634 13.3335 1.33301 10.0002 1.33301H6.00016C2.66683 1.33301 1.3335 2.66634 1.3335 5.99967V9.99967C1.3335 13.333 2.66683 14.6663 6.00016 14.6663Z" stroke="#8C8C8C" stroke-linecap="round" stroke-linejoin="round"/>
<path d="M1.3335 8.66682H3.84016C4.34683 8.66682 4.80683 8.95349 5.0335 9.40682L5.62683 10.6002C6.00016 11.3335 6.66683 11.3335 6.82683 11.3335H9.18016C9.68683 11.3335 10.1468 11.0468 10.3735 10.5935L10.9668 9.40016C11.1935 8.94682 11.6535 8.66016 12.1602 8.66016H14.6535" stroke="#8C8C8C" stroke-linecap="round" stroke-linejoin="round"/>
<path d="M6.89355 4.66699H9.11355" stroke="#8C8C8C" stroke-linecap="round" stroke-linejoin="round"/>
<path d="M6.3335 6.66699H9.66683" stroke="#8C8C8C" stroke-linecap="round" stroke-linejoin="round"/>
</svg>
