<svg width="15" height="16" viewBox="0 0 15 16" fill="none" xmlns="http://www.w3.org/2000/svg">
<path d="M14.153 7.5632L7.91054 13.8056C7.14579 14.5704 6.10858 15 5.02707 15C3.94555 15 2.90834 14.5704 2.14359 13.8056C1.37885 13.0409 0.949219 12.0037 0.949219 10.9222C0.949219 9.84064 1.37885 8.80342 2.14359 8.03868L8.38602 1.79625C8.89585 1.28642 9.58733 1 10.3083 1C11.0293 1 11.7208 1.28642 12.2307 1.79625C12.7405 2.30608 13.0269 2.99756 13.0269 3.71856C13.0269 4.43957 12.7405 5.13105 12.2307 5.64088L5.98143 11.8833C5.72652 12.1382 5.38078 12.2814 5.02027 12.2814C4.65977 12.2814 4.31403 12.1382 4.05912 11.8833C3.8042 11.6284 3.66099 11.2827 3.66099 10.9222C3.66099 10.5616 3.8042 10.2159 4.05912 9.961L9.82606 4.20084" stroke="#8C8C8C" stroke-width="1.5" stroke-linecap="round" stroke-linejoin="round"/>
</svg>
