<svg width="781" height="85" viewBox="0 0 781 85" fill="none" xmlns="http://www.w3.org/2000/svg">
<path d="M332.239 61.2833C317.788 61.2833 306.027 50.7384 306.027 37.7785V19.2847C306.027 16.5167 308.528 14.2734 311.617 14.2734C314.702 14.2734 317.203 16.5167 317.203 19.2847V37.7785C317.203 45.2115 323.952 51.261 332.239 51.261C333.561 51.261 334.869 51.1081 336.126 50.8075C339.11 50.094 342.171 51.6834 342.966 54.3582C343.762 57.0333 341.991 59.7776 339.008 60.4911C336.813 61.0159 334.533 61.2833 332.239 61.2833Z" fill="#FAFAFA"/>
<path d="M26.2122 61.2833C11.7596 61.2833 0 50.7384 0 37.7785C0 24.8186 11.7596 14.2734 26.2122 14.2734C33.2136 14.2734 39.7945 16.7195 44.747 21.158C45.7952 22.0981 46.3834 23.3723 46.3834 24.7017C46.3834 26.0307 45.7952 27.3049 44.747 28.2453L30.164 41.3222C27.9818 43.2789 24.4425 43.2789 22.2603 41.3222C20.0782 39.3652 20.0782 36.1915 22.2603 34.2348L32.1358 25.3793C30.289 24.6682 28.2825 24.296 26.2122 24.296C17.9228 24.296 11.1769 30.3452 11.1769 37.7785C11.1769 45.2115 17.9228 51.261 26.2122 51.261C34.5015 51.261 41.2474 45.2115 41.2474 37.7785C41.2474 35.0102 43.749 32.7672 46.836 32.7672C49.9227 32.7672 52.4243 35.0102 52.4243 37.7785C52.4243 50.7408 40.6647 61.2833 26.2122 61.2833Z" fill="#FAFAFA"/>
<path d="M103.972 61.2833C100.885 61.2833 98.3835 59.0403 98.3835 56.272V37.7785C98.3835 30.3452 91.6375 24.296 83.3479 24.296C75.0586 24.296 68.3126 30.3452 68.3126 37.7785V56.272C68.3126 59.0403 65.8111 61.2833 62.7244 61.2833C59.6373 61.2833 57.1357 59.0403 57.1357 56.272V37.7785C57.1357 24.8186 68.8954 14.2734 83.3479 14.2734C97.8004 14.2734 109.56 24.8186 109.56 37.7785V56.272C109.56 59.0403 107.058 61.2833 103.972 61.2833Z" fill="#FAFAFA"/>
<path d="M145.217 61.2847C142.13 61.2847 139.628 59.0418 139.628 56.2735V37.78C139.628 30.3466 132.882 24.2975 124.593 24.2975C122.067 24.2975 119.571 24.8676 117.376 25.9487C114.669 27.2802 111.274 26.3924 109.789 23.9658C108.304 21.5389 109.294 18.4941 112 17.1623C115.838 15.2747 120.194 14.2773 124.593 14.2773C139.046 14.2773 150.805 24.8225 150.805 37.7824V56.2759C150.805 59.0418 148.304 61.2847 145.217 61.2847Z" fill="#FAFAFA"/>
<path d="M161.246 85.0006C158.16 85.0006 155.658 82.7573 155.658 79.9893V37.7785C155.658 24.8186 167.418 14.2734 181.87 14.2734C196.323 14.2734 208.083 24.8186 208.083 37.7785C208.083 50.7384 196.323 61.2833 181.87 61.2833C178.783 61.2833 176.282 59.0403 176.282 56.272C176.282 53.504 178.783 51.261 181.87 51.261C190.16 51.261 196.906 45.2115 196.906 37.7785C196.906 30.3452 190.16 24.296 181.87 24.296C173.581 24.296 166.835 30.3452 166.835 37.7785V79.9893C166.835 82.7573 164.334 85.0006 161.246 85.0006Z" fill="#FAFAFA"/>
<path d="M259.306 61.2833C256.219 61.2833 253.717 59.0403 253.717 56.272V37.7785C253.717 30.3452 246.971 24.296 238.682 24.296C230.393 24.296 223.647 30.3452 223.647 37.7785C223.647 45.2115 230.393 51.261 238.682 51.261C241.769 51.261 244.27 53.504 244.27 56.272C244.27 59.0403 241.769 61.2833 238.682 61.2833C224.229 61.2833 212.47 50.7384 212.47 37.7785C212.47 24.8186 224.229 14.2734 238.682 14.2734C253.134 14.2734 264.894 24.8186 264.894 37.7785V56.272C264.894 59.0403 262.392 61.2833 259.306 61.2833Z" fill="#FAFAFA"/>
<path d="M295.87 61.2844C281.417 61.2844 269.658 50.7396 269.658 37.7797V5.01128C269.658 2.24297 272.159 0 275.246 0C278.334 0 280.835 2.24297 280.835 5.01128V37.7821C280.835 45.2151 287.581 51.2643 295.87 51.2643C298.959 51.2643 301.46 53.5076 301.46 56.2756C301.46 59.0436 298.959 61.2844 295.87 61.2844Z" fill="#FAFAFA"/>
<path d="M289.191 24.296H275.247C272.16 24.296 269.658 22.0527 269.658 19.2847C269.658 16.5167 272.16 14.2734 275.247 14.2734H289.191C292.278 14.2734 294.779 16.5167 294.779 19.2847C294.779 22.0527 292.275 24.296 289.191 24.296Z" fill="#FAFAFA"/>
<path d="M352.706 85.0006C349.617 85.0006 347.116 82.7573 347.116 79.9893V19.2847C347.116 16.5167 349.617 14.2734 352.706 14.2734C355.791 14.2734 358.292 16.5167 358.292 19.2847V79.9893C358.292 82.7573 355.791 85.0006 352.706 85.0006Z" fill="#FAFAFA"/>
<path d="M524.799 38.0588C524.799 41.5226 522.8 44.0095 518.226 44.0095H512.276V32.2856H518.226C522.845 32.2856 524.799 34.5505 524.799 38.0588ZM508.234 28.955V59.9078H512.276V47.2514H517.161L524.532 59.9078H529.373L521.601 46.9405C526.797 45.7859 528.973 42.0111 528.973 38.0588C528.973 32.9962 525.509 28.955 518.226 28.955H508.234Z" fill="white"/>
<path d="M558.345 47.6955C558.345 40.0128 552.972 35.1722 546.044 35.1722C539.161 35.1722 533.743 40.0128 533.743 47.6955C533.743 55.4226 538.983 60.3075 545.866 60.3075C552.794 60.3075 558.345 55.4226 558.345 47.6955ZM537.873 47.6955C537.873 41.5671 541.736 38.6805 545.999 38.6805C550.174 38.6805 554.215 41.5671 554.215 47.6955C554.215 53.8683 550.085 56.7548 545.866 56.7548C541.647 56.7548 537.873 53.8683 537.873 47.6955Z" fill="white"/>
<path d="M586.751 47.6955C586.751 40.0128 581.378 35.1722 574.45 35.1722C567.566 35.1722 562.149 40.0128 562.149 47.6955C562.149 55.4226 567.389 60.3075 574.272 60.3075C581.2 60.3075 586.751 55.4226 586.751 47.6955ZM566.279 47.6955C566.279 41.5671 570.142 38.6805 574.405 38.6805C578.58 38.6805 582.621 41.5671 582.621 47.6955C582.621 53.8683 578.491 56.7548 574.272 56.7548C570.053 56.7548 566.279 53.8683 566.279 47.6955Z" fill="white"/>
<path d="M627.192 59.9078H631.189V45.5638C631.189 38.5917 626.881 35.1278 621.33 35.1278C617.599 35.1278 614.136 37.0374 612.715 40.5457C611.116 36.9041 607.785 35.1278 603.788 35.1278C600.591 35.1278 597.704 36.5045 596.106 39.0802V35.5719H592.064V59.9078H596.106V46.4964C596.106 41.2562 598.903 38.6361 602.989 38.6361C606.986 38.6361 609.65 41.1674 609.65 46.1412V59.9078H613.647V46.4964C613.647 41.2562 616.445 38.6361 620.53 38.6361C624.527 38.6361 627.192 41.1674 627.192 46.1412V59.9078Z" fill="white"/>
<path d="M649.657 59.9078H653.698V36.9485L663.957 59.9078H666.799L677.013 36.993V59.9078H681.054V29.177H676.746L665.378 54.5788L654.009 29.177H649.657V59.9078Z" fill="white"/>
<path d="M686.398 47.651C686.398 55.2005 691.416 60.3075 697.899 60.3075C702.385 60.3075 705.538 57.9983 707.003 55.3782V59.9078H711.089V35.5719H707.003V40.0128C705.582 37.4815 702.474 35.1722 697.944 35.1722C691.416 35.1722 686.398 40.0572 686.398 47.651ZM707.003 47.6955C707.003 53.4242 703.184 56.7548 698.743 56.7548C694.302 56.7548 690.528 53.3798 690.528 47.651C690.528 41.9223 694.302 38.6805 698.743 38.6805C703.184 38.6805 707.003 42.0556 707.003 47.6955Z" fill="white"/>
<path d="M717.918 59.9078H721.959V49.1609L731.507 59.9078H737.014L725.512 47.6955L736.969 35.5719H731.329L721.959 46.3632V27.0454H717.918V59.9078Z" fill="white"/>
<path d="M751.12 38.5917C755.295 38.5917 758.847 41.2118 758.803 45.9635H743.437C743.882 41.2118 747.168 38.5917 751.12 38.5917ZM762.489 52.4028H758.137C757.249 55.0229 754.939 56.8881 751.298 56.8881C747.168 56.8881 743.704 54.1791 743.393 49.2498H762.844C762.933 48.406 762.977 47.6955 762.977 46.8073C762.977 40.146 758.359 35.1722 751.298 35.1722C744.192 35.1722 739.263 40.0128 739.263 47.6955C739.263 55.4226 744.37 60.3075 751.298 60.3075C757.337 60.3075 761.245 56.8436 762.489 52.4028Z" fill="white"/>
<path d="M772.353 46.6741C772.353 41.0342 775.284 39.3022 779.147 39.3022H780.213V35.1278C776.349 35.1278 773.729 36.8153 772.353 39.5243V35.5719H768.311V59.9078H772.353V46.6741Z" fill="white"/>
<path fill-rule="evenodd" clip-rule="evenodd" d="M434.353 15.2681V69.5454H431.886V15.2681H434.353Z" fill="white"/>
</svg>
