<svg width="24" height="24" viewBox="0 0 24 24" fill="none" xmlns="http://www.w3.org/2000/svg">
<path fill-rule="evenodd" clip-rule="evenodd" d="M10 4C8.34315 4 7 5.34315 7 7C7 8.65685 8.34315 10 10 10C11.6569 10 13 8.65685 13 7C13 5.34315 11.6569 4 10 4ZM5 7C5 4.23858 7.23858 2 10 2C12.7614 2 15 4.23858 15 7C15 9.76142 12.7614 12 10 12C7.23858 12 5 9.76142 5 7Z" fill="#8C8C8C"/>
<path fill-rule="evenodd" clip-rule="evenodd" d="M10.0001 15C6.5576 15 4.74797 16.2198 3.84519 17.6976C3.53101 18.212 3.61003 18.6971 3.9936 19.1428C4.41203 19.629 5.16864 20 6.00005 20H14.0001C14.8315 20 15.5881 19.629 16.0065 19.1428C16.3901 18.6971 16.4691 18.212 16.1549 17.6976C15.2521 16.2198 13.4425 15 10.0001 15ZM2.13844 16.655C3.48775 14.4462 6.03689 13 10.0001 13C13.9632 13 16.5124 14.4462 17.8617 16.655C18.6991 18.0259 18.3786 19.4526 17.5224 20.4474C16.7011 21.4018 15.3778 22 14.0001 22H6.00005C4.62233 22 3.29901 21.4018 2.4777 20.4474C1.62153 19.4526 1.301 18.0259 2.13844 16.655Z" fill="#8C8C8C"/>
<line x1="19" y1="4" x2="19" y2="8" stroke="#8C8C8C" stroke-width="2" stroke-linecap="round"/>
<line x1="21" y1="6" x2="17" y2="6" stroke="#8C8C8C" stroke-width="2" stroke-linecap="round"/>
</svg>
