<svg width="24" height="24" viewBox="0 0 24 24" fill="none" xmlns="http://www.w3.org/2000/svg">
<path d="M22 11V12.78C22 16.34 21.11 17.22 17.56 17.22H6.44C2.89 17.22 2 16.33 2 12.78V6.44C2 2.89 2.89 2 6.44 2H10.5" stroke="#E51D63" stroke-width="1.5" stroke-linecap="round" stroke-linejoin="round"/>
<path d="M12 17.2202V22.0002" stroke="#E51D63" stroke-width="1.5" stroke-linecap="round" stroke-linejoin="round"/>
<path d="M2 13H22" stroke="#E51D63" stroke-width="1.5" stroke-linecap="round" stroke-linejoin="round"/>
<path d="M7.5 22H16.5" stroke="#E51D63" stroke-width="1.5" stroke-linecap="round" stroke-linejoin="round"/>
<path d="M13.3496 3.4502L17.3196 5.75018L21.2696 3.46021" stroke="#E51D63" stroke-width="1.5" stroke-linecap="round" stroke-linejoin="round"/>
<path d="M17.3193 9.82025V5.74023" stroke="#E51D63" stroke-width="1.5" stroke-linecap="round" stroke-linejoin="round"/>
<path d="M16.39 1.21L13.99 2.53996C13.45 2.83996 13 3.59995 13 4.21995V6.75999C13 7.37999 13.44 8.13998 13.99 8.43998L16.39 9.77C16.9 10.06 17.74 10.06 18.26 9.77L20.66 8.43998C21.2 8.13998 21.65 7.37999 21.65 6.75999V4.21995C21.65 3.59995 21.21 2.83996 20.66 2.53996L18.26 1.21C17.74 0.93 16.9 0.93 16.39 1.21Z" stroke="#E51D63" stroke-width="1.5" stroke-linecap="round" stroke-linejoin="round"/>
</svg>
