<svg width="15" height="16" viewBox="0 0 15 16" fill="none" xmlns="http://www.w3.org/2000/svg">
<path d="M14.2008 7.5632L7.95839 13.8056C7.19365 14.5704 6.15643 15 5.07492 15C3.99341 15 2.95619 14.5704 2.19144 13.8056C1.4267 13.0409 0.99707 12.0037 0.99707 10.9222C0.99707 9.84064 1.4267 8.80342 2.19144 8.03868L8.43387 1.79625C8.9437 1.28642 9.63518 1 10.3562 1C11.0772 1 11.7687 1.28642 12.2785 1.79625C12.7883 2.30608 13.0748 2.99756 13.0748 3.71856C13.0748 4.43957 12.7883 5.13105 12.2785 5.64088L6.02928 11.8833C5.77437 12.1382 5.42863 12.2814 5.06812 12.2814C4.70762 12.2814 4.36188 12.1382 4.10697 11.8833C3.85205 11.6284 3.70884 11.2827 3.70884 10.9222C3.70884 10.5616 3.85205 10.2159 4.10697 9.961L9.87391 4.20084" stroke="#E51D63" stroke-width="1.5" stroke-linecap="round" stroke-linejoin="round"/>
</svg>
