<svg width="312" height="36" viewBox="0 0 312 36" fill="none" xmlns="http://www.w3.org/2000/svg">
<path d="M134.664 25.6129C128.807 25.6129 124.04 21.3388 124.04 16.0858V8.5898C124.04 7.46785 125.054 6.55859 126.306 6.55859C127.556 6.55859 128.57 7.46785 128.57 8.5898V16.0858C128.57 19.0986 131.305 21.5506 134.664 21.5506C135.2 21.5506 135.73 21.4886 136.24 21.3668C137.449 21.0776 138.69 21.7218 139.012 22.806C139.335 23.8903 138.617 25.0026 137.408 25.2918C136.518 25.5045 135.594 25.6129 134.664 25.6129Z" fill="#FAFAFA"/>
<path d="M10.6245 25.6129C4.76649 25.6129 0 21.3388 0 16.0858C0 10.8328 4.76649 6.55859 10.6245 6.55859C13.4624 6.55859 16.1297 7.55006 18.1371 9.34907C18.562 9.73013 18.8004 10.2466 18.8004 10.7854C18.8004 11.3241 18.562 11.8406 18.1371 12.2218L12.2262 17.5222C11.3418 18.3153 9.90718 18.3153 9.02269 17.5222C8.1382 16.7289 8.1382 15.4426 9.02269 14.6495L13.0255 11.0601C12.2769 10.7718 11.4636 10.621 10.6245 10.621C7.2646 10.621 4.53028 13.0729 4.53028 16.0858C4.53028 19.0986 7.2646 21.5506 10.6245 21.5506C13.9843 21.5506 16.7187 19.0986 16.7187 16.0858C16.7187 14.9637 17.7326 14.0546 18.9839 14.0546C20.235 14.0546 21.2489 14.9637 21.2489 16.0858C21.2489 21.3398 16.4824 25.6129 10.6245 25.6129Z" fill="#FAFAFA"/>
<path d="M42.1421 25.6129C40.8908 25.6129 39.877 24.7038 39.877 23.5817V16.0858C39.877 13.0729 37.1427 10.621 33.7827 10.621C30.4228 10.621 27.6885 13.0729 27.6885 16.0858V23.5817C27.6885 24.7038 26.6745 25.6129 25.4234 25.6129C24.1722 25.6129 23.1582 24.7038 23.1582 23.5817V16.0858C23.1582 10.8328 27.9247 6.55859 33.7827 6.55859C39.6406 6.55859 44.4071 10.8328 44.4071 16.0858V23.5817C44.4071 24.7038 43.3932 25.6129 42.1421 25.6129Z" fill="#FAFAFA"/>
<path d="M58.8602 25.6139C57.609 25.6139 56.5952 24.7047 56.5952 23.5827V16.0868C56.5952 13.0739 53.8609 10.622 50.5008 10.622C49.4773 10.622 48.4655 10.853 47.5756 11.2913C46.4786 11.8309 45.1023 11.4711 44.5005 10.4875C43.8986 9.50385 44.2999 8.26969 45.3968 7.72989C46.9522 6.96481 48.718 6.56055 50.5008 6.56055C56.359 6.56055 61.1253 10.8348 61.1253 16.0878V23.5837C61.1253 24.7047 60.1115 25.6139 58.8602 25.6139Z" fill="#FAFAFA"/>
<path d="M65.3569 35.2261C64.1057 35.2261 63.0918 34.3169 63.0918 33.1949V16.0858C63.0918 10.8328 67.8583 6.55859 73.7163 6.55859C79.5742 6.55859 84.3407 10.8328 84.3407 16.0858C84.3407 21.3388 79.5742 25.6129 73.7163 25.6129C72.465 25.6129 71.4512 24.7038 71.4512 23.5817C71.4512 22.4598 72.465 21.5506 73.7163 21.5506C77.0761 21.5506 79.8104 19.0986 79.8104 16.0858C79.8104 13.0729 77.0761 10.621 73.7163 10.621C70.3564 10.621 67.6221 13.0729 67.6221 16.0858V33.1949C67.6221 34.3169 66.6081 35.2261 65.3569 35.2261Z" fill="#FAFAFA"/>
<path d="M105.104 25.6129C103.853 25.6129 102.839 24.7038 102.839 23.5817V16.0858C102.839 13.0729 100.104 10.621 96.7446 10.621C93.3847 10.621 90.6504 13.0729 90.6504 16.0858C90.6504 19.0986 93.3847 21.5506 96.7446 21.5506C97.9958 21.5506 99.0097 22.4598 99.0097 23.5817C99.0097 24.7038 97.9958 25.6129 96.7446 25.6129C90.8866 25.6129 86.1201 21.3388 86.1201 16.0858C86.1201 10.8328 90.8866 6.55859 96.7446 6.55859C102.603 6.55859 107.369 10.8328 107.369 16.0858V23.5817C107.369 24.7038 106.355 25.6129 105.104 25.6129Z" fill="#FAFAFA"/>
<path d="M119.923 25.6136C114.065 25.6136 109.299 21.3395 109.299 16.0865V2.80464C109.299 1.68257 110.313 0.773438 111.564 0.773438C112.815 0.773438 113.829 1.68257 113.829 2.80464V16.0875C113.829 19.1003 116.563 21.5522 119.923 21.5522C121.175 21.5522 122.189 22.4615 122.189 23.5834C122.189 24.7053 121.175 25.6136 119.923 25.6136Z" fill="#FAFAFA"/>
<path d="M117.216 10.621H111.564C110.313 10.621 109.299 9.71174 109.299 8.5898C109.299 7.46785 110.313 6.55859 111.564 6.55859H117.216C118.467 6.55859 119.481 7.46785 119.481 8.5898C119.481 9.71174 118.466 10.621 117.216 10.621Z" fill="#FAFAFA"/>
<path d="M142.961 35.2261C141.709 35.2261 140.695 34.3169 140.695 33.1949V8.5898C140.695 7.46785 141.709 6.55859 142.961 6.55859C144.211 6.55859 145.225 7.46785 145.225 8.5898V33.1949C145.225 34.3169 144.211 35.2261 142.961 35.2261Z" fill="#FAFAFA"/>
<path d="M206.674 24.7734V11.6334H210.436C212.344 11.6334 213.736 11.9394 214.612 12.5514C215.488 13.1514 215.926 14.1114 215.926 15.4314C215.926 16.7394 215.5 17.7114 214.648 18.3474C213.796 18.9714 212.476 19.2834 210.688 19.2834H207.394V18.0234H210.508C211.9 18.0234 212.902 17.8254 213.514 17.4294C214.138 17.0214 214.45 16.3734 214.45 15.4854C214.45 14.5974 214.138 13.9554 213.514 13.5594C212.902 13.1514 211.9 12.9474 210.508 12.9474H208.114V24.7734H206.674ZM214.666 24.7734L208.078 18.7254H209.932L216.574 24.7734H214.666ZM221.683 24.9534C220.243 24.9534 219.121 24.5274 218.317 23.6754C217.525 22.8234 217.129 21.6294 217.129 20.0934C217.129 18.5574 217.525 17.3634 218.317 16.5114C219.121 15.6594 220.243 15.2334 221.683 15.2334C223.123 15.2334 224.239 15.6594 225.031 16.5114C225.835 17.3634 226.237 18.5574 226.237 20.0934C226.237 21.6294 225.835 22.8234 225.031 23.6754C224.239 24.5274 223.123 24.9534 221.683 24.9534ZM221.683 23.7474C222.691 23.7474 223.465 23.4354 224.005 22.8114C224.557 22.1754 224.833 21.2694 224.833 20.0934C224.833 18.9174 224.557 18.0174 224.005 17.3934C223.465 16.7574 222.691 16.4394 221.683 16.4394C220.687 16.4394 219.913 16.7574 219.361 17.3934C218.809 18.0174 218.533 18.9174 218.533 20.0934C218.533 21.2694 218.809 22.1754 219.361 22.8114C219.913 23.4354 220.687 23.7474 221.683 23.7474ZM232.424 24.9534C230.984 24.9534 229.862 24.5274 229.058 23.6754C228.266 22.8234 227.87 21.6294 227.87 20.0934C227.87 18.5574 228.266 17.3634 229.058 16.5114C229.862 15.6594 230.984 15.2334 232.424 15.2334C233.864 15.2334 234.98 15.6594 235.772 16.5114C236.576 17.3634 236.978 18.5574 236.978 20.0934C236.978 21.6294 236.576 22.8234 235.772 23.6754C234.98 24.5274 233.864 24.9534 232.424 24.9534ZM232.424 23.7474C233.432 23.7474 234.206 23.4354 234.746 22.8114C235.298 22.1754 235.574 21.2694 235.574 20.0934C235.574 18.9174 235.298 18.0174 234.746 17.3934C234.206 16.7574 233.432 16.4394 232.424 16.4394C231.428 16.4394 230.654 16.7574 230.102 17.3934C229.55 18.0174 229.274 18.9174 229.274 20.0934C229.274 21.2694 229.55 22.1754 230.102 22.8114C230.654 23.4354 231.428 23.7474 232.424 23.7474ZM239.26 24.7734V15.4134H240.61V16.6734H240.646C240.97 16.2414 241.384 15.8934 241.888 15.6294C242.404 15.3654 242.992 15.2334 243.652 15.2334C244.312 15.2334 244.864 15.3594 245.308 15.6114C245.752 15.8514 246.052 16.2054 246.208 16.6734H246.244C246.592 16.1934 247.018 15.8334 247.522 15.5934C248.038 15.3534 248.632 15.2334 249.304 15.2334C250.312 15.2334 251.038 15.5154 251.482 16.0794C251.938 16.6314 252.166 17.5194 252.166 18.7434V24.7734H250.78V19.0494C250.78 18.1254 250.63 17.4594 250.33 17.0514C250.042 16.6434 249.568 16.4394 248.908 16.4394C248.164 16.4394 247.564 16.6854 247.108 17.1774C246.652 17.6694 246.424 18.3234 246.424 19.1394V24.7734H245.02V18.6534C245.02 17.9334 244.858 17.3874 244.534 17.0154C244.21 16.6314 243.748 16.4394 243.148 16.4394C242.68 16.4394 242.254 16.5654 241.87 16.8174C241.498 17.0694 241.198 17.4054 240.97 17.8254C240.754 18.2334 240.646 18.6714 240.646 19.1394V24.7734H239.26ZM260.235 24.7734V11.6334H262.107L266.463 20.3274H266.499L270.855 11.6334H272.727V24.7734H271.287V13.8654H271.251L267.183 21.9834H265.779L261.711 13.8654H261.675V24.7734H260.235ZM278.088 24.9534C277.14 24.9534 276.39 24.7014 275.838 24.1974C275.286 23.6814 275.01 22.9914 275.01 22.1274C275.01 21.0474 275.448 20.2194 276.324 19.6434C277.2 19.0554 278.454 18.7614 280.086 18.7614H281.58C281.58 18.1614 281.508 17.6934 281.364 17.3574C281.22 17.0214 280.98 16.7874 280.644 16.6554C280.308 16.5114 279.84 16.4394 279.24 16.4394C278.64 16.4394 278.028 16.4994 277.404 16.6194C276.792 16.7394 276.204 16.9194 275.64 17.1594L275.388 16.0074C275.988 15.7554 276.63 15.5634 277.314 15.4314C278.01 15.2994 278.712 15.2334 279.42 15.2334C280.32 15.2334 281.028 15.3474 281.544 15.5754C282.06 15.8034 282.432 16.1874 282.66 16.7274C282.888 17.2674 283.002 17.9874 283.002 18.8874V24.7734H281.634L281.616 23.4954H281.58C281.268 23.9274 280.782 24.2814 280.122 24.5574C279.474 24.8214 278.796 24.9534 278.088 24.9534ZM278.538 23.7834C279.102 23.7834 279.612 23.6754 280.068 23.4594C280.536 23.2434 280.902 22.9554 281.166 22.5954C281.442 22.2234 281.58 21.8154 281.58 21.3714V19.8594H280.266C278.994 19.8594 278.034 20.0454 277.386 20.4174C276.738 20.7774 276.414 21.3054 276.414 22.0014C276.414 22.5534 276.6 22.9914 276.972 23.3154C277.344 23.6274 277.866 23.7834 278.538 23.7834ZM285.737 24.7734V11.6334H287.177V19.4274H287.213L292.037 15.4134H293.909L288.473 19.9134L294.143 24.7734H292.271L287.213 20.3814H287.177V24.7734H285.737ZM299.298 24.9534C297.738 24.9534 296.532 24.5334 295.68 23.6934C294.84 22.8534 294.42 21.6534 294.42 20.0934C294.42 18.5814 294.81 17.3934 295.59 16.5294C296.382 15.6654 297.474 15.2334 298.866 15.2334C300.198 15.2334 301.218 15.6414 301.926 16.4574C302.634 17.2614 302.988 18.4194 302.988 19.9314C302.988 20.0514 302.988 20.1774 302.988 20.3094C302.988 20.4414 302.982 20.5554 302.97 20.6514H295.194V19.4994H301.926L301.656 19.8774C301.656 18.7134 301.422 17.8434 300.954 17.2674C300.486 16.6914 299.79 16.4034 298.866 16.4034C297.882 16.4034 297.126 16.7154 296.598 17.3394C296.07 17.9514 295.806 18.8274 295.806 19.9674V20.3274C295.806 21.4674 296.094 22.3254 296.67 22.9014C297.258 23.4654 298.116 23.7474 299.244 23.7474C299.76 23.7474 300.294 23.6934 300.846 23.5854C301.41 23.4774 301.914 23.3334 302.358 23.1534L302.574 24.3054C302.118 24.5094 301.602 24.6654 301.026 24.7734C300.45 24.8934 299.874 24.9534 299.298 24.9534ZM305.231 24.7734V15.4134H306.599L306.617 17.3754H306.653C306.929 16.9314 307.283 16.5534 307.715 16.2414C308.147 15.9174 308.639 15.6714 309.191 15.5034C309.743 15.3234 310.325 15.2334 310.937 15.2334V16.4934C310.145 16.4934 309.425 16.6554 308.777 16.9794C308.129 17.3034 307.613 17.7354 307.229 18.2754C306.857 18.8154 306.671 19.4214 306.671 20.0934V24.7734H305.231Z" fill="white"/>
<line x1="174.5" y1="28.7734" x2="174.5" y2="6.77344" stroke="white"/>
</svg>
