<svg width="312" height="35" viewBox="0 0 312 35" fill="none" xmlns="http://www.w3.org/2000/svg">
<path d="M134.664 24.8395C128.807 24.8395 124.04 20.5654 124.04 15.3124V7.81636C124.04 6.69441 125.054 5.78516 126.306 5.78516C127.556 5.78516 128.57 6.69441 128.57 7.81636V15.3124C128.57 18.3252 131.305 20.7772 134.664 20.7772C135.2 20.7772 135.73 20.7152 136.24 20.5934C137.449 20.3042 138.69 20.9484 139.012 22.0326C139.335 23.1169 138.617 24.2292 137.408 24.5184C136.518 24.7311 135.594 24.8395 134.664 24.8395Z" fill="#FAFAFA"/>
<path d="M10.6245 24.8395C4.76649 24.8395 0 20.5654 0 15.3124C0 10.0594 4.76649 5.78516 10.6245 5.78516C13.4624 5.78516 16.1297 6.77662 18.1371 8.57564C18.562 8.9567 18.8004 9.47317 18.8004 10.012C18.8004 10.5507 18.562 11.0671 18.1371 11.4483L12.2262 16.7487C11.3418 17.5418 9.90718 17.5418 9.02269 16.7487C8.1382 15.9555 8.1382 14.6691 9.02269 13.876L13.0255 10.2866C12.2769 9.9984 11.4636 9.84756 10.6245 9.84756C7.2646 9.84756 4.53028 12.2994 4.53028 15.3124C4.53028 18.3252 7.2646 20.7772 10.6245 20.7772C13.9843 20.7772 16.7187 18.3252 16.7187 15.3124C16.7187 14.1903 17.7326 13.2812 18.9839 13.2812C20.235 13.2812 21.2489 14.1903 21.2489 15.3124C21.2489 20.5663 16.4824 24.8395 10.6245 24.8395Z" fill="#FAFAFA"/>
<path d="M42.1421 24.8395C40.8908 24.8395 39.877 23.9303 39.877 22.8083V15.3124C39.877 12.2994 37.1427 9.84756 33.7827 9.84756C30.4228 9.84756 27.6885 12.2994 27.6885 15.3124V22.8083C27.6885 23.9303 26.6745 24.8395 25.4234 24.8395C24.1722 24.8395 23.1582 23.9303 23.1582 22.8083V15.3124C23.1582 10.0594 27.9247 5.78516 33.7827 5.78516C39.6406 5.78516 44.4071 10.0594 44.4071 15.3124V22.8083C44.4071 23.9303 43.3932 24.8395 42.1421 24.8395Z" fill="#FAFAFA"/>
<path d="M58.8602 24.8404C57.609 24.8404 56.5952 23.9313 56.5952 22.8092V15.3133C56.5952 12.3004 53.8609 9.84853 50.5008 9.84853C49.4773 9.84853 48.4655 10.0796 47.5756 10.5178C46.4786 11.0575 45.1023 10.6977 44.5005 9.7141C43.8986 8.73041 44.2999 7.49626 45.3968 6.95645C46.9522 6.19137 48.718 5.78711 50.5008 5.78711C56.359 5.78711 61.1253 10.0613 61.1253 15.3143V22.8102C61.1253 23.9313 60.1115 24.8404 58.8602 24.8404Z" fill="#FAFAFA"/>
<path d="M65.3569 34.4527C64.1057 34.4527 63.0918 33.5435 63.0918 32.4215V15.3124C63.0918 10.0594 67.8583 5.78516 73.7163 5.78516C79.5742 5.78516 84.3407 10.0594 84.3407 15.3124C84.3407 20.5654 79.5742 24.8395 73.7163 24.8395C72.465 24.8395 71.4512 23.9303 71.4512 22.8083C71.4512 21.6863 72.465 20.7772 73.7163 20.7772C77.0761 20.7772 79.8104 18.3252 79.8104 15.3124C79.8104 12.2994 77.0761 9.84756 73.7163 9.84756C70.3564 9.84756 67.6221 12.2994 67.6221 15.3124V32.4215C67.6221 33.5435 66.6081 34.4527 65.3569 34.4527Z" fill="#FAFAFA"/>
<path d="M105.104 24.8395C103.853 24.8395 102.839 23.9303 102.839 22.8083V15.3124C102.839 12.2994 100.104 9.84756 96.7446 9.84756C93.3847 9.84756 90.6504 12.2994 90.6504 15.3124C90.6504 18.3252 93.3847 20.7772 96.7446 20.7772C97.9958 20.7772 99.0097 21.6863 99.0097 22.8083C99.0097 23.9303 97.9958 24.8395 96.7446 24.8395C90.8866 24.8395 86.1201 20.5654 86.1201 15.3124C86.1201 10.0594 90.8866 5.78516 96.7446 5.78516C102.603 5.78516 107.369 10.0594 107.369 15.3124V22.8083C107.369 23.9303 106.355 24.8395 105.104 24.8395Z" fill="#FAFAFA"/>
<path d="M119.923 24.8402C114.065 24.8402 109.299 20.5661 109.299 15.3131V2.0312C109.299 0.909135 110.313 0 111.564 0C112.815 0 113.829 0.909135 113.829 2.0312V15.3141C113.829 18.3269 116.563 20.7788 119.923 20.7788C121.175 20.7788 122.189 21.688 122.189 22.81C122.189 23.9319 121.175 24.8402 119.923 24.8402Z" fill="#FAFAFA"/>
<path d="M117.216 9.84756H111.564C110.313 9.84756 109.299 8.9383 109.299 7.81636C109.299 6.69441 110.313 5.78516 111.564 5.78516H117.216C118.467 5.78516 119.481 6.69441 119.481 7.81636C119.481 8.9383 118.466 9.84756 117.216 9.84756Z" fill="#FAFAFA"/>
<path d="M142.961 34.4527C141.709 34.4527 140.695 33.5435 140.695 32.4215V7.81636C140.695 6.69441 141.709 5.78516 142.961 5.78516C144.211 5.78516 145.225 6.69441 145.225 7.81636V32.4215C145.225 33.5435 144.211 34.4527 142.961 34.4527Z" fill="#FAFAFA"/>
<path d="M206.674 25.2266V12.0866H210.436C212.344 12.0866 213.736 12.3926 214.612 13.0046C215.488 13.6046 215.926 14.5646 215.926 15.8846C215.926 17.1926 215.5 18.1646 214.648 18.8006C213.796 19.4246 212.476 19.7366 210.688 19.7366H207.394V18.4766H210.508C211.9 18.4766 212.902 18.2786 213.514 17.8826C214.138 17.4746 214.45 16.8266 214.45 15.9386C214.45 15.0506 214.138 14.4086 213.514 14.0126C212.902 13.6046 211.9 13.4006 210.508 13.4006H208.114V25.2266H206.674ZM214.666 25.2266L208.078 19.1786H209.932L216.574 25.2266H214.666ZM221.683 25.4066C220.243 25.4066 219.121 24.9806 218.317 24.1286C217.525 23.2766 217.129 22.0826 217.129 20.5466C217.129 19.0106 217.525 17.8166 218.317 16.9646C219.121 16.1126 220.243 15.6866 221.683 15.6866C223.123 15.6866 224.239 16.1126 225.031 16.9646C225.835 17.8166 226.237 19.0106 226.237 20.5466C226.237 22.0826 225.835 23.2766 225.031 24.1286C224.239 24.9806 223.123 25.4066 221.683 25.4066ZM221.683 24.2006C222.691 24.2006 223.465 23.8886 224.005 23.2646C224.557 22.6286 224.833 21.7226 224.833 20.5466C224.833 19.3706 224.557 18.4706 224.005 17.8466C223.465 17.2106 222.691 16.8926 221.683 16.8926C220.687 16.8926 219.913 17.2106 219.361 17.8466C218.809 18.4706 218.533 19.3706 218.533 20.5466C218.533 21.7226 218.809 22.6286 219.361 23.2646C219.913 23.8886 220.687 24.2006 221.683 24.2006ZM232.424 25.4066C230.984 25.4066 229.862 24.9806 229.058 24.1286C228.266 23.2766 227.87 22.0826 227.87 20.5466C227.87 19.0106 228.266 17.8166 229.058 16.9646C229.862 16.1126 230.984 15.6866 232.424 15.6866C233.864 15.6866 234.98 16.1126 235.772 16.9646C236.576 17.8166 236.978 19.0106 236.978 20.5466C236.978 22.0826 236.576 23.2766 235.772 24.1286C234.98 24.9806 233.864 25.4066 232.424 25.4066ZM232.424 24.2006C233.432 24.2006 234.206 23.8886 234.746 23.2646C235.298 22.6286 235.574 21.7226 235.574 20.5466C235.574 19.3706 235.298 18.4706 234.746 17.8466C234.206 17.2106 233.432 16.8926 232.424 16.8926C231.428 16.8926 230.654 17.2106 230.102 17.8466C229.55 18.4706 229.274 19.3706 229.274 20.5466C229.274 21.7226 229.55 22.6286 230.102 23.2646C230.654 23.8886 231.428 24.2006 232.424 24.2006ZM239.26 25.2266V15.8666H240.61V17.1266H240.646C240.97 16.6946 241.384 16.3466 241.888 16.0826C242.404 15.8186 242.992 15.6866 243.652 15.6866C244.312 15.6866 244.864 15.8126 245.308 16.0646C245.752 16.3046 246.052 16.6586 246.208 17.1266H246.244C246.592 16.6466 247.018 16.2866 247.522 16.0466C248.038 15.8066 248.632 15.6866 249.304 15.6866C250.312 15.6866 251.038 15.9686 251.482 16.5326C251.938 17.0846 252.166 17.9726 252.166 19.1966V25.2266H250.78V19.5026C250.78 18.5786 250.63 17.9126 250.33 17.5046C250.042 17.0966 249.568 16.8926 248.908 16.8926C248.164 16.8926 247.564 17.1386 247.108 17.6306C246.652 18.1226 246.424 18.7766 246.424 19.5926V25.2266H245.02V19.1066C245.02 18.3866 244.858 17.8406 244.534 17.4686C244.21 17.0846 243.748 16.8926 243.148 16.8926C242.68 16.8926 242.254 17.0186 241.87 17.2706C241.498 17.5226 241.198 17.8586 240.97 18.2786C240.754 18.6866 240.646 19.1246 240.646 19.5926V25.2266H239.26ZM260.235 25.2266V12.0866H262.107L266.463 20.7806H266.499L270.855 12.0866H272.727V25.2266H271.287V14.3186H271.251L267.183 22.4366H265.779L261.711 14.3186H261.675V25.2266H260.235ZM278.088 25.4066C277.14 25.4066 276.39 25.1546 275.838 24.6506C275.286 24.1346 275.01 23.4446 275.01 22.5806C275.01 21.5006 275.448 20.6726 276.324 20.0966C277.2 19.5086 278.454 19.2146 280.086 19.2146H281.58C281.58 18.6146 281.508 18.1466 281.364 17.8106C281.22 17.4746 280.98 17.2406 280.644 17.1086C280.308 16.9646 279.84 16.8926 279.24 16.8926C278.64 16.8926 278.028 16.9526 277.404 17.0726C276.792 17.1926 276.204 17.3726 275.64 17.6126L275.388 16.4606C275.988 16.2086 276.63 16.0166 277.314 15.8846C278.01 15.7526 278.712 15.6866 279.42 15.6866C280.32 15.6866 281.028 15.8006 281.544 16.0286C282.06 16.2566 282.432 16.6406 282.66 17.1806C282.888 17.7206 283.002 18.4406 283.002 19.3406V25.2266H281.634L281.616 23.9486H281.58C281.268 24.3806 280.782 24.7346 280.122 25.0106C279.474 25.2746 278.796 25.4066 278.088 25.4066ZM278.538 24.2366C279.102 24.2366 279.612 24.1286 280.068 23.9126C280.536 23.6966 280.902 23.4086 281.166 23.0486C281.442 22.6766 281.58 22.2686 281.58 21.8246V20.3126H280.266C278.994 20.3126 278.034 20.4986 277.386 20.8706C276.738 21.2306 276.414 21.7586 276.414 22.4546C276.414 23.0066 276.6 23.4446 276.972 23.7686C277.344 24.0806 277.866 24.2366 278.538 24.2366ZM285.737 25.2266V12.0866H287.177V19.8806H287.213L292.037 15.8666H293.909L288.473 20.3666L294.143 25.2266H292.271L287.213 20.8346H287.177V25.2266H285.737ZM299.298 25.4066C297.738 25.4066 296.532 24.9866 295.68 24.1466C294.84 23.3066 294.42 22.1066 294.42 20.5466C294.42 19.0346 294.81 17.8466 295.59 16.9826C296.382 16.1186 297.474 15.6866 298.866 15.6866C300.198 15.6866 301.218 16.0946 301.926 16.9106C302.634 17.7146 302.988 18.8726 302.988 20.3846C302.988 20.5046 302.988 20.6306 302.988 20.7626C302.988 20.8946 302.982 21.0086 302.97 21.1046H295.194V19.9526H301.926L301.656 20.3306C301.656 19.1666 301.422 18.2966 300.954 17.7206C300.486 17.1446 299.79 16.8566 298.866 16.8566C297.882 16.8566 297.126 17.1686 296.598 17.7926C296.07 18.4046 295.806 19.2806 295.806 20.4206V20.7806C295.806 21.9206 296.094 22.7786 296.67 23.3546C297.258 23.9186 298.116 24.2006 299.244 24.2006C299.76 24.2006 300.294 24.1466 300.846 24.0386C301.41 23.9306 301.914 23.7866 302.358 23.6066L302.574 24.7586C302.118 24.9626 301.602 25.1186 301.026 25.2266C300.45 25.3466 299.874 25.4066 299.298 25.4066ZM305.231 25.2266V15.8666H306.599L306.617 17.8286H306.653C306.929 17.3846 307.283 17.0066 307.715 16.6946C308.147 16.3706 308.639 16.1246 309.191 15.9566C309.743 15.7766 310.325 15.6866 310.937 15.6866V16.9466C310.145 16.9466 309.425 17.1086 308.777 17.4326C308.129 17.7566 307.613 18.1886 307.229 18.7286C306.857 19.2686 306.671 19.8746 306.671 20.5466V25.2266H305.231Z" fill="white"/>
<line x1="174.5" y1="28.2266" x2="174.5" y2="6.22656" stroke="white"/>
</svg>
